<?xml version="1.0" encoding="UTF-8"?>
<svg width="100px" height="100px" viewBox="0 0 100 100" version="1.1" xmlns="http://www.w3.org/2000/svg" xmlns:xlink="http://www.w3.org/1999/xlink">
    <!-- Generator: Sketch 53.2 (72643) - https://sketchapp.com -->
    <title>rnhooks-normal</title>
    <desc>Created with Sketch.</desc>
    <g id="rnhooks-normal" stroke="none" stroke-width="1" fill="none" fill-rule="evenodd">
        <g id="Logo" transform="translate(16.000000, 20.000000)" fill="#010101" fill-rule="nonzero">
            <path d="M17.2429291,60.5478234 C15.8397889,59.9847749 15.1280511,59.5021619 14.0706121,58.355956 C12.9928378,57.1896412 12.4844537,56.2043063 12.1794232,54.6358141 C11.7523805,52.5243822 12.2811,49.0455467 13.1351853,48.1607562 C13.3995451,47.8993409 13.4198805,48.040103 13.2978683,49.2667444 C13.0741792,51.5390473 13.8265878,54.0928744 15.1077157,55.460278 C15.6567706,56.0434353 15.6567706,56.4053951 15.1077157,56.4053951 C14.9450328,56.4053951 14.8230206,56.4657217 14.8230206,56.5461572 C14.8230206,56.7673548 16.4498498,58.2151939 17.0802461,58.5369359 C19.7848497,59.9043394 25.7024409,57.5113832 30.8269529,52.9667774 C31.4776845,52.38362 32.0267394,51.8406804 32.0674101,51.7803538 C32.0877455,51.6999183 31.1523187,50.5336035 29.9728675,49.1662 C28.8137517,47.8189054 27.3089347,46.0091066 26.6785384,45.1444249 L25.4990872,43.5759327 L23.3638739,43.3346262 C19.1137826,42.872122 13.4198805,41.6052629 10.4102464,40.459057 C4.75701498,38.2872985 1.42201513,35.7736891 0.262899323,32.7774667 C-0.184478706,31.6111519 -0.0421311511,29.5198289 0.547594433,28.1926431 C1.76771633,25.4578361 6.18049053,22.4213959 11.610033,20.5914883 C12.6471366,20.2295285 13.562228,19.8876776 13.6435695,19.827351 C13.7045756,19.7670244 13.5418926,18.7615806 13.2571975,17.5952658 C12.8504902,15.9061203 12.728478,14.7599144 12.6471366,11.8642364 C12.5251244,7.92289685 12.6878073,6.31418683 13.4198805,4.42395256 C14.0299414,2.81524254 15.4534169,1.32718577 17.1209169,0.583157382 C18.2393619,0.080435501 18.6257339,0.0201088753 20.415246,0 C22.3267703,0 22.5504593,0.0402177505 23.8519227,0.683701759 C24.6856726,1.08587926 25.7024409,1.80979877 26.3938433,2.49350053 C27.5326237,3.61959755 29.0781115,6.1734247 28.7934164,6.45494896 C28.7120749,6.53538446 28.16302,6.13320695 27.5732945,5.55004957 C25.7024409,3.70003305 23.7705812,2.71469816 22.0217398,2.71469816 C21.3303374,2.71469816 20.9643009,2.43317391 21.3303374,2.21197628 C22.4691179,1.52827452 19.0934473,1.58860115 17.7106425,2.29241178 C16.7345449,2.77502479 16.0024718,3.9011218 15.3924109,5.79135607 C14.8026853,7.60115485 14.843356,13.0104423 15.4534169,16.44906 C15.677106,17.7963546 15.9414657,18.9827782 16.0431425,19.0632137 C16.124484,19.1436492 17.3446059,19.0028871 18.7477461,18.7213629 C20.1712216,18.4197297 22.4894532,18.0376611 23.8925934,17.8566812 L26.4751848,17.4947215 L28.5087213,14.8805677 C30.8066175,11.9446719 36.1548185,6.53538446 38.2900318,4.96689219 C41.7877146,2.43317391 44.5533242,1.30707689 47.2985985,1.28696802 C48.7627447,1.26685914 49.1897874,1.34729464 50.1048788,1.80979877 C51.8537202,2.65437153 53.1145129,4.36362593 53.7855799,6.79679984 C54.4973177,9.35062699 54.293964,14.9207854 53.3788726,18.3392942 L53.0941775,19.3849557 L55.6564335,20.2295285 C58.9914333,21.3154078 60.8622869,22.1599805 62.9771649,23.5676018 C65.1327135,24.9752231 66.6171952,26.4632798 67.3899391,27.9714455 C67.9389939,29.017107 68,29.3589579 68,30.9877768 C68,32.6769223 67.9389939,32.8981199 67.2475915,34.3057412 C65.8647867,37.080766 63.8922563,38.3878429 60.3945735,38.9106736 C58.9914333,39.1117624 57.0595737,38.9508914 57.0392383,38.6090405 C57.0189029,38.5084961 57.5882931,38.3074074 58.3000309,38.1666452 C60.7199393,37.6840322 62.5704576,36.5780441 63.5668904,35.0296607 L64.0752746,34.2253057 L64.4413111,34.7079187 L64.8276831,35.1905317 L65.5597562,33.6823661 C66.4341769,31.912785 66.4341769,30.947559 65.5800916,29.2986312 C64.380305,26.9458928 59.7845126,24.0301059 54.5989945,22.3007427 C53.4805494,21.918674 52.565458,21.6371498 52.5451226,21.6773675 C52.5247873,21.6974764 52.3010983,22.401287 52.0367385,23.2257509 C51.7927141,24.0502148 50.9996349,26.1616467 50.2878971,27.9111189 C49.5761593,29.6806999 48.9864338,31.2491921 48.9864338,31.4100631 C48.9864338,31.591043 49.5761593,33.1796442 50.2878971,34.9693341 C52.8908238,41.4041741 53.6635677,44.7623563 53.8059153,49.9906639 C53.8872567,53.3287372 53.8669214,54.1129833 53.5618909,55.1184271 C52.8704885,57.4510566 51.7520434,59.0195489 50.1048788,59.8842305 C49.4134764,60.2662991 48.9660984,60.3266258 47.0545741,60.3266258 C44.9803669,60.3266258 44.6956718,60.2662991 43.1908548,59.6630329 C40.5675927,58.5771536 38.2290257,57.068988 35.3414039,54.5553786 C34.5889954,53.9118946 33.9382637,53.3890638 33.8569222,53.3890638 C33.7959161,53.3890638 33.2265259,53.8716768 32.5961296,54.4548342 C30.277898,56.586375 27.7359774,58.195085 24.5026544,59.6027063 C21.0253069,61.1108719 19.1951241,61.3521784 17.2429291,60.5478234 Z M49.5354886,58.7380246 C51.3656715,57.8934519 52.4434458,55.9026732 52.8704885,52.6249265 C53.3178665,49.1662 52.3824397,43.4552794 50.4302447,37.8650121 C49.2507935,34.4666122 48.5187204,32.6769223 48.3560375,32.6769223 C48.274696,32.6769223 47.7053058,33.6823661 47.0545741,34.9090074 C45.9767997,37.0003305 43.8415864,40.6601458 42.9061596,42.0275493 C42.5197877,42.5704889 42.5197877,42.6509244 42.7841475,42.8520132 C43.0485072,43.0531019 43.0281718,43.1134285 42.6011292,43.2139729 C42.255428,43.2944084 41.4420134,44.2194167 40.0388732,46.0694332 C38.9204281,47.55749 37.3139343,49.5482686 36.4801843,50.453168 L34.9957027,52.1222047 L36.0328063,53.1276484 C37.3749404,54.4146164 39.1237818,55.8021288 40.5472573,56.7070282 C44.3703059,59.1200932 47.2782631,59.7635773 49.5354886,58.7380246 Z M35.2193917,48.5629337 C37.1512514,46.3911752 39.0221049,44.0987634 39.0221049,43.8976747 C39.0221049,43.8172392 36.5615258,43.7770214 33.5315564,43.7971303 C30.5219224,43.7971303 28.0410079,43.8775658 28.0410079,43.9580013 C28.0410079,44.4205054 33.0231723,50.3727325 33.4095442,50.3727325 C33.5315564,50.3727325 34.344971,49.5482686 35.2193917,48.5629337 Z M40.8116171,41.424283 C43.5568913,37.3421813 47.1562509,30.9877768 47.1562509,30.1633129 C47.1562509,29.6404821 45.3260681,26.1415378 43.2518608,22.7029202 C41.5030195,19.8072421 41.3606719,19.6463711 40.6692695,19.5257179 C39.3068,19.3045202 31.2133248,19.1436492 28.6510688,19.2844114 L26.1091482,19.4452824 L24.7466787,21.4762788 C23.1808556,23.8692349 21.3100021,27.0464372 20.4965875,28.7355827 C20.0898802,29.6002644 19.9882033,30.0225508 20.1102155,30.3644016 C20.5575936,31.5508253 23.2825325,36.6785885 24.5839958,38.8101292 C26.8005506,42.4297268 27.1462518,42.8922309 27.7969835,42.9927753 C28.102014,43.032993 30.9082943,43.0732108 34.0196052,43.0531019 L39.7135073,43.032993 L40.8116171,41.424283 Z M24.4213129,42.0878759 C24.2179592,41.7259162 23.5062215,40.619928 22.8758252,39.6144843 C22.2250935,38.6291494 21.0659777,36.6584796 20.2728984,35.2508583 C19.5001546,33.8231282 18.7884168,32.71714 18.68674,32.7774667 C18.6053985,32.8176844 18.4223802,33.1394264 18.2800327,33.4812773 C18.0156729,34.0845436 17.6699717,34.3057412 17.6699717,33.8432371 C17.6699717,33.7024749 17.8123193,33.1595353 18.0156729,32.6367045 L18.3410388,31.7116963 L17.2225937,29.1176514 C16.5921974,27.7100301 15.6974413,25.4578361 15.2093926,24.1306503 C14.7416792,22.8034645 14.2739658,21.6572586 14.2129597,21.5567143 C13.9892707,21.2952989 10.3695757,22.562158 7.80731972,23.8290172 C2.39811264,26.4632798 0.384911513,29.2584135 1.52369195,32.556269 C1.93039925,33.7024749 3.63856991,35.6128181 5.24506374,36.6986973 C7.80731972,38.4079517 11.7727159,40.0568795 15.8397889,41.0824321 C17.9343315,41.6052629 19.1137826,41.8465694 23.1605203,42.5101623 C24.929697,42.7916865 24.8686909,42.8117954 24.4213129,42.0878759 Z M48.8440862,26.8453485 C50.0438727,24.0099971 50.8979581,21.4159521 50.6946044,21.2148634 C50.2878971,20.8529036 42.6011292,19.6061534 42.3571048,19.8675688 C42.2757633,19.9278954 42.7638121,20.8327948 43.4348791,21.8583474 C45.0210376,24.2513036 47.5629582,28.7154739 47.5629582,29.0774336 C47.5629582,29.6002644 47.9493302,28.9366715 48.8440862,26.8453485 Z M19.9068619,28.6149295 C19.9068619,28.3132964 22.367441,23.9496704 23.8315873,21.6572586 C24.482319,20.6115971 24.9703677,19.7268066 24.9093617,19.66648 C24.6856726,19.4452824 16.8362218,20.5713794 16.5515267,20.8529036 C16.3888437,21.0137746 18.9307644,28.1122076 19.4188131,28.8964537 C19.5611607,29.1176514 19.9068619,28.8964537 19.9068619,28.6149295 Z M51.8130495,17.9572256 C52.6061287,13.9756683 52.6874702,13.2316399 52.6061287,10.2555264 C52.5247873,7.7218081 52.4434458,7.05821521 52.0570739,6.05277145 C50.3082325,1.6288189 46.0988119,1.34729464 40.0388732,5.22830757 C37.1919221,7.03810634 33.3078674,10.5571595 30.3999102,13.9756683 C28.99677,15.6245961 27.8376542,17.092544 27.8376542,17.2333061 C27.8376542,17.2735238 30.4405809,17.2936327 33.6332332,17.2936327 C36.8258855,17.2936327 39.4288122,17.253415 39.4288122,17.1930883 C39.4288122,17.1327617 39.2457939,16.8311286 39.0221049,16.4892777 C38.4323794,15.6044872 38.4933854,15.2023097 39.1441171,15.805576 C39.4288122,16.0669913 39.8151842,16.5294955 39.9778671,16.8110197 C40.2625622,17.2936327 40.4659158,17.3740682 41.8487207,17.4947215 C43.9025925,17.6757013 48.3967082,18.3594031 49.7998484,18.701254 C51.5690251,19.1235404 51.5690251,19.1235404 51.8130495,17.9572256 Z" id="Shape"></path>
            <path d="M32.1291372,36.6766621 C31.6354522,36.4828893 30.8197988,35.9876921 30.3046493,35.5140252 C26.1190592,31.8323419 27.9220826,25.2225361 33.3955465,24.1029599 C34.9624597,23.7800052 36.8513414,24.2321418 38.2465381,25.2440664 C43.3980335,28.9472801 40.8437504,37.0642077 34.5331684,36.9996168 C33.717515,36.9996168 32.6228222,36.8489046 32.1291372,36.6766621 Z" id="Path"></path>
        </g>
    </g>
</svg>