<?xml version="1.0" encoding="UTF-8"?>
<svg width="201px" height="168px" viewBox="0 0 201 168" version="1.1" xmlns="http://www.w3.org/2000/svg" xmlns:xlink="http://www.w3.org/1999/xlink">
    <!-- Generator: Sketch 53.2 (72643) - https://sketchapp.com -->
    <title>rnhooks-logo-vertical</title>
    <desc>Created with Sketch.</desc>
    <g id="rnhooks-logo-vertical" stroke="none" stroke-width="1" fill="none" fill-rule="evenodd">
        <text id="React-Native-Hooks" font-family="AvenirNext-Regular, Avenir Next" font-size="16" font-weight="normal" fill="#1A1919">
            <tspan x="36.272" y="142">React Native Hooks</tspan>
        </text>
        <g id="Logo" transform="translate(45.000000, 17.000000)" fill="#010101" fill-rule="nonzero">
            <path d="M28.146546,99.2587269 C25.856126,98.3356965 24.6943187,97.5445277 22.9682051,95.6655016 C21.208897,93.7535102 20.3790347,92.1382071 19.8811173,89.5669083 C19.1840329,86.1055445 20.0470897,80.4025356 21.4412584,78.9520594 C21.8727868,78.5235096 21.9059813,78.7542672 21.7068144,80.7651547 C21.3416749,84.4902414 22.5698712,88.6768433 24.6611242,90.9184884 C25.5573755,91.8744842 25.5573755,92.4678608 24.6611242,92.4678608 C24.3955683,92.4678608 24.1964013,92.5667569 24.1964013,92.6986184 C24.1964013,93.0612374 26.8519608,95.434744 27.88099,95.9621899 C32.2958576,98.2038351 41.955455,94.2809561 50.3204672,86.8307827 C51.3826909,85.8747869 52.2789422,84.984722 52.3453312,84.8858259 C52.3785257,84.7539644 50.851579,82.841973 48.9262985,80.6003279 C47.0342124,78.3916481 44.5778199,75.4247649 43.5487906,74.007254 L41.62351,71.4359552 L38.1380883,71.0403708 C31.2004393,70.2821673 21.9059813,68.205349 16.9931964,66.326323 C7.76512739,62.7660631 2.32123057,58.6453919 0.429144484,53.7335519 C-0.301134358,51.8215605 -0.0687729085,48.3931621 0.893867383,46.2174477 C2.88553695,41.7341575 10.0887419,36.7563867 18.9516715,33.7565381 C20.6445906,33.1631615 22.1383428,32.6027502 22.2711207,32.5038541 C22.3707042,32.404958 22.1051483,30.7566895 21.6404254,28.8446981 C20.9765355,26.0756071 20.7773686,24.196581 20.6445906,19.4495679 C20.4454236,12.9883555 20.7109796,10.351126 21.9059813,7.25238124 C22.9018161,4.6151517 25.2254306,2.17571437 27.947379,0.955995709 C29.7730761,0.131861477 30.4037715,0.0329653693 33.3248868,0 C36.4451692,0 36.8103086,0.0659307385 38.9347561,1.12082256 C40.2957303,1.78012994 41.955455,2.96688323 43.0840677,4.08770579 C44.9429593,5.93376647 47.4657408,10.1203684 47.0010179,10.5818835 C46.8682399,10.713745 45.9719886,10.0544376 45.0093483,9.09844192 C41.955455,6.06562795 38.8019782,4.45032485 35.9472518,4.45032485 C34.818639,4.45032485 34.2211382,3.98880968 34.818639,3.62619062 C36.6775306,2.50536806 31.1672448,2.60426417 28.9100193,3.7580521 C27.3166837,4.54922096 26.1216819,6.39528164 25.1258471,9.49402635 C24.1632068,12.4609096 24.2295958,21.3285939 25.2254306,26.9656721 C25.59057,29.1743518 26.0220984,31.1193086 26.1880709,31.2511701 C26.3208489,31.3830315 28.3125184,31.152274 30.6029384,30.6907588 C32.9265529,30.1962783 36.7107251,29.5699362 39.0011451,29.2732479 L43.2168457,28.6798713 L46.536295,24.3943733 C50.2872727,19.5814293 59.0174243,10.713745 62.502846,8.14244621 C68.2122988,3.98880968 72.7267498,2.142749 77.2080063,2.10978363 C79.5980098,2.07681826 80.2950942,2.20867974 81.7888463,2.96688323 C84.6435727,4.35142874 86.7016313,7.15348513 87.7970495,11.1422948 C88.9588568,15.3288967 88.6269119,24.460304 87.1331597,30.0644168 L86.6684368,31.778616 L90.8509429,33.1631615 C96.2948397,34.9432914 99.348733,36.3278369 102.80096,38.6354128 C106.319577,40.9429886 108.742774,43.382426 110.004165,45.8548287 C110.900417,47.5690279 111,48.1294391 111,50.799634 C111,53.5687251 110.900417,53.9313441 109.771804,56.23892 C107.514578,60.7881409 104.294712,62.9308899 98.5852597,63.7879895 C96.2948397,64.1176432 93.1413629,63.8539203 93.1081684,63.293509 C93.0749739,63.1286822 94.0044197,62.7990285 95.1662269,62.5682709 C99.1163716,61.777102 102.13707,59.9640067 103.763601,57.4256733 L104.593463,56.1070585 L105.190964,56.8982274 L105.821659,57.6893962 L107.016661,55.2169935 C108.444024,52.316041 108.444024,50.7337033 107.049855,48.030543 C105.09138,44.1735948 97.5894249,39.3936163 89.1248292,36.5585945 C87.2991321,35.9322525 85.80538,35.4707373 85.7721855,35.5366681 C85.738991,35.5696334 85.3738516,36.7234214 84.9423232,38.0750015 C84.5439892,39.4265816 83.249404,42.8879454 82.0875968,45.7559325 C80.9257895,48.656885 79.9631492,51.2281838 79.9631492,51.4919068 C79.9631492,51.7885951 80.9257895,54.3928593 82.0875968,57.3267772 C86.3364918,67.8756953 87.5978826,73.380912 87.830244,81.951908 C87.963022,87.4241593 87.9298275,88.7098087 87.4319101,90.3580772 C86.3032974,94.18206 84.4776003,96.7533588 81.7888463,98.1708697 C80.6602336,98.7972117 79.9299547,98.8961078 76.8096724,98.8961078 C73.4238342,98.8961078 72.9591113,98.7972117 70.5027188,97.8082506 C66.2206292,96.0281207 62.4032625,93.555718 57.6896446,89.4350468 C56.4614483,88.380155 55.3992246,87.5230554 55.2664466,87.5230554 C55.1668631,87.5230554 54.2374173,88.3142243 53.208388,89.27022 C49.4242159,92.7645491 45.2749043,95.4017787 39.9969799,97.7093545 C34.3207216,100.181757 31.3332173,100.577342 28.146546,99.2587269 Z M80.8594005,96.2918436 C83.8469049,94.9072981 85.606213,91.6437266 86.3032974,86.2703714 C87.0335762,80.6003279 85.5066295,71.238163 82.3199582,62.0737903 C80.3946776,56.5026429 79.1996759,53.5687251 78.93412,53.5687251 C78.801342,53.5687251 77.8718962,55.2169935 76.8096724,57.2278811 C75.0503643,60.6562795 71.5649426,66.6559767 70.0379959,68.8976218 C69.4073005,69.7876867 69.4073005,69.9195482 69.8388289,70.2492019 C70.2703573,70.5788556 70.2371628,70.6777517 69.5400785,70.8425786 C68.9757721,70.97444 67.6479924,72.490847 65.3575724,75.523661 C63.5318753,77.9630983 60.9095104,81.2266699 59.5485362,82.7101115 L57.1253382,85.4462371 L58.8182573,87.0945056 C61.0090938,89.2042892 63.8638202,91.4788997 66.1874347,92.9623413 C72.4279994,96.9181857 77.1748118,97.9730775 80.8594005,96.2918436 Z M57.4904776,79.6113668 C60.6439544,76.0511069 63.6978478,72.2930548 63.6978478,71.9634011 C63.6978478,71.8315396 59.6813141,71.7656089 54.7353347,71.7985743 C49.8225498,71.7985743 45.7728216,71.9304357 45.7728216,72.0622972 C45.7728216,72.8205007 53.9054724,82.57825 54.5361677,82.57825 C54.7353347,82.57825 56.0631144,81.2266699 57.4904776,79.6113668 Z M66.6189631,67.9086607 C71.1002197,61.2166907 76.9756449,50.799634 76.9756449,49.4480539 C76.9756449,48.5909543 73.9881405,42.8549801 70.6023023,37.2179019 C67.7475759,32.4708887 67.5152144,32.2071658 66.3866017,32.0093736 C64.1625707,31.6467545 50.9511625,31.3830315 46.7686564,31.6137891 L42.6193448,31.8775121 L40.3953138,35.2070144 C37.8393379,39.1298933 34.7854445,44.3384217 33.4576648,47.1075127 C32.793775,48.5250236 32.6278025,49.2172963 32.8269695,49.7777076 C33.5572483,51.7226644 38.0053103,60.1288335 40.1297579,63.6231627 C43.7479576,69.5569292 44.312264,70.3151327 45.3744877,70.4799595 C45.8724051,70.5458902 50.4532451,70.611821 55.5320025,70.5788556 L64.8264605,70.5458902 L66.6189631,67.9086607 Z M39.8642019,68.9965179 C39.532257,68.4031412 38.3704498,66.5900459 37.3414205,64.9417775 C36.2791967,63.3264744 34.3871106,60.0958682 33.0925254,57.7882923 C31.8311347,55.4477511 30.6693274,53.6346558 30.503355,53.7335519 C30.370577,53.7994826 30.0718266,54.3269286 29.8394651,54.8873398 C29.4079367,55.8763009 28.8436303,56.23892 28.8436303,55.4807165 C28.8436303,55.2499589 29.0759918,54.3598939 29.4079367,53.5027943 L29.9390486,51.9863873 L28.1133515,47.7338547 C27.0843222,45.4262789 25.6237645,41.7341575 24.8270967,39.5584431 C24.0636234,37.3827288 23.30015,35.5037027 23.2005665,35.3388759 C22.8354271,34.9103261 16.9268074,36.9871443 12.7443013,39.0639626 C3.91456623,43.382426 0.62831144,47.9646123 2.48720304,53.3709328 C3.15109289,55.2499589 5.93943029,58.381669 8.56179522,60.1617989 C12.7443013,62.9638553 19.2172274,65.6670156 25.856126,67.3482494 C29.2751587,68.205349 31.2004393,68.6009335 37.8061434,69.6887906 C40.6940642,70.1503058 40.5944808,70.1832712 39.8642019,68.9965179 Z M79.7307878,44.008768 C81.6892629,39.3606509 83.0834316,35.1081183 82.7514866,34.7784646 C82.0875968,34.1850879 69.5400785,32.141235 69.1417446,32.5697848 C69.0089666,32.6686809 69.8056344,34.1521226 70.9010527,35.8333564 C73.4902231,39.7562353 77.6395347,47.0745473 77.6395347,47.667924 C77.6395347,48.5250236 78.2702301,47.4371664 79.7307878,44.008768 Z M32.4950245,46.9097205 C32.4950245,46.4152399 36.5115582,39.2617548 38.9015616,35.5037027 C39.9637854,33.7895035 40.7604532,32.3390273 40.6608698,32.2401311 C40.2957303,31.8775121 27.4826561,33.7235728 27.0179332,34.1850879 C26.7523773,34.4488109 30.9016889,46.0855862 31.6983567,47.3712356 C31.9307182,47.7338547 32.4950245,47.3712356 32.4950245,46.9097205 Z M84.5771837,29.4380748 C85.871769,22.9109316 86.0045469,21.691213 85.871769,16.8123383 C85.738991,12.6587018 85.606213,11.5708446 84.9755176,9.92257615 C82.1207913,2.67019491 75.2495313,2.20867974 65.3575724,8.57099601 C60.7103434,11.5378792 54.3701953,17.3068189 49.6233828,22.9109316 C47.3329628,25.6140919 45.4408767,28.0205639 45.4408767,28.2513215 C45.4408767,28.3172522 49.6897718,28.3502176 54.9013072,28.3502176 C60.1128425,28.3502176 64.3617376,28.2842868 64.3617376,28.1853907 C64.3617376,28.0864946 64.0629872,27.5920141 63.6978478,27.0316028 C62.7352075,25.5811266 62.8347909,24.9218192 63.8970147,25.9107802 C64.3617376,26.33933 64.992433,27.0975335 65.2579889,27.5590487 C65.7227118,28.3502176 66.0546567,28.482079 68.3118823,28.6798713 C71.664526,28.9765596 79.0005089,30.0973821 81.2909289,30.6577934 C84.1788498,31.3500662 84.1788498,31.3500662 84.5771837,29.4380748 Z" id="Shape"></path>
            <path d="M52.6701447,60.4776849 C51.8726536,60.1646673 50.5550596,59.3647334 49.7228949,58.5995792 C42.9615572,52.6522446 45.8741334,41.9748661 54.7158828,40.1663198 C57.2470503,39.6446238 60.2983207,40.3749983 62.5521,42.0096458 C70.8737465,47.9917602 66.7475968,61.1037201 56.5535798,60.9993809 C55.2359858,60.9993809 53.4676359,60.7559228 52.6701447,60.4776849 Z" id="Path"></path>
        </g>
    </g>
</svg>