<?xml version="1.0" encoding="UTF-8"?>
<svg width="201px" height="168px" viewBox="0 0 201 168" version="1.1" xmlns="http://www.w3.org/2000/svg" xmlns:xlink="http://www.w3.org/1999/xlink">
    <!-- Generator: Sketch 53.2 (72643) - https://sketchapp.com -->
    <title>rnhooks-logo-vertical</title>
    <desc>Created with Sketch.</desc>
    <g id="rnhooks-logo-vertical" stroke="none" stroke-width="1" fill="none" fill-rule="evenodd">
        <rect fill="#FFFFFF" x="0" y="0" width="201" height="168"></rect>
        <g id="Logo" transform="translate(38.000000, 6.000000)">
            <g id="layer2" fill="#020202" fill-rule="nonzero">
                <polygon id="Path" points="0 62.5 0 0 62.5 0 125 0 125 62.5 125 125 62.5 125 0 125"></polygon>
            </g>
            <g id="layer1" fill="#FFFFFF" fill-rule="nonzero">
                <path d="M0,62.5 L0,0 L62.5,0 L125,0 L125,62.5 L125,125 L62.5,125 L0,125 L0,62.5 Z M59.2307692,93.5673077 C59.7788462,93.1057692 61.9134615,91.125 62.3461538,90.7019231 C62.375,90.6730769 62.7980769,91.0096154 63.2884615,91.4519231 C67.4615385,95.2307692 70.8365385,97.4807692 74.3365385,98.7884615 C80.2788462,101.028846 84.8365385,99.0288462 86.3846154,93.5 C86.9134615,91.625 86.9711538,91.0384615 86.9711538,87.9326923 C86.9615385,84.875 86.9038462,84.1538462 86.3942308,81.375 C85.4807692,76.3942308 83.3846154,69.9903846 80.9230769,64.6826923 C80.7307692,64.2788462 80.5769231,63.875 80.5769231,63.7980769 C80.5769231,63.7211538 80.6923077,63.4134615 80.8269231,63.1057692 C82.4903846,59.3942308 84.0961538,55.1442308 85,52.0480769 C85.1538462,51.5 85.2403846,51.3461538 85.3846154,51.3461538 C85.6730769,51.3461538 89.2307692,52.5480769 90.6634615,53.1346154 C93.2019231,54.1634615 95.7115385,55.5288462 97.4038462,56.8076923 C97.7852153,57.0937192 100.239996,58.661473 101.273439,60.3998487 C102.74137,62.8690879 102.834943,65.6967581 102.885023,65.8063086 C103.461947,67.0370779 103.951923,60.8461538 103.269231,59.4711538 C102.394231,57.6826923 100.990385,56.1153846 98.9903846,54.6730769 C95.8269231,52.3942308 92.2019231,50.7692308 86.6057692,49.1346154 C85.9326923,48.9326923 85.8557692,48.8846154 85.9038462,48.7115385 C85.9326923,48.5961538 86.1346154,47.6634615 86.3461538,46.625 C87.5288462,40.8173077 87.5769231,35.875 86.4711538,32.4615385 C85.6153846,29.7884615 84.2596154,28.0288462 82.3557692,27.125 C81.0576923,26.5 80.5384615,26.3942308 78.8942308,26.4038462 C77.6153846,26.4134615 77.3269231,26.4423077 76.3461538,26.7019231 C74.4903846,27.1923077 72.6923077,27.9903846 70.7211538,29.1826923 C65.6634615,32.25 59.8173077,38.0384615 54.6634615,45.0865385 C53.5673077,46.5865385 53.5288462,46.625 53.1442308,46.6730769 C52.9230769,46.7019231 52.0961538,46.7980769 51.2980769,46.875 C48.6057692,47.1634615 44.1057692,47.8942308 43.9038462,48.0865385 C43.8461538,48.1346154 43.6442308,48.1730769 43.4519231,48.1730769 C43.2596154,48.1730769 42.5576923,48.3076923 41.8942308,48.4615385 C40.4326923,48.8076923 40.3269231,48.8173077 40.2596154,48.5384615 C39.25,43.8653846 38.9326923,41.4519231 38.9230769,38.4615385 C38.9230769,36.5769231 38.9522114,34.3559519 39.1637499,33.182875 C39.6637499,30.3655673 40.7970361,28.2211538 42.2585746,27.125 C42.362429,27.0463674 40.2646105,27.0334665 39.5192308,27.7788462 C37.8557692,29.4519231 37.0085447,31.1659198 36.5470062,34.2909198 C36.191237,36.7909198 36.2980769,41.3461538 36.9711538,44.9038462 C37.1730769,45.9711538 37.6826923,48.25 37.8365385,48.7884615 C38.0096154,49.375 38.0192308,49.5192308 37.8557692,49.5192308 C37.5673077,49.5192308 34.0673077,50.7403846 32.5480769,51.375 C24.8942308,54.5480769 20.8653846,58.5576923 20.8653846,62.9807692 C20.8653846,66.7211538 23.9038462,70.1923077 29.6538462,73.0192308 C33.9038462,75.1057692 39.0096154,76.6346154 45.2596154,77.6826923 C46.9134615,77.9711538 47.4903846,78.0384615 50.7788462,78.4230769 L52.1923077,78.5961538 L52.7788462,79.4134615 C54.4807692,81.8173077 57.3269231,85.3076923 59.5480769,87.7115385 L60.6730769,88.9326923 L59.4038462,90.0769231 C57.0576923,92.1730769 55.8461538,93.1346154 53.9423077,94.3942308 C49.2692308,97.4807692 44.1165426,98.9676689 41.5492349,97.6118997 C40.7896195,97.2080535 41.2566186,97.9230769 40.7950801,97.0961538 C40.4489263,96.4615385 41.3473118,98.3173077 41.5492349,98.7884615 C43.3569272,102.961538 54.8942308,97.2980769 59.2307692,93.5673077 Z" id="Shape"></path>
                <path d="M77.2596154,98.2980769 C75.2884615,97.9519231 72.7211538,96.7980769 70.2884615,95.1634615 C69.5384615,94.6634615 67.9230769,93.4711538 67.5,93.1153846 C67.3653846,93 66.9134615,92.6153846 66.4903846,92.2596154 C65.2980769,91.2596154 63.5576923,89.6153846 63.5576923,89.4903846 C63.5576923,89.4230769 63.8269231,89.0961538 64.1634615,88.75 C64.8173077,88.0673077 65.8846154,86.8557692 66.4903846,86.1057692 C66.7019231,85.8461538 67.0096154,85.4807692 67.1730769,85.2980769 C68.0673077,84.25 70.0865385,81.5769231 71.4326923,79.6442308 C71.9230769,78.9423077 72.3461538,78.3653846 72.3846154,78.3557692 C72.4230769,78.3557692 72.8653846,78.2884615 73.3653846,78.2211538 L74.2788462,78.0865385 L73.3942308,78.125 C72.9038462,78.1538462 72.5,78.1442308 72.5,78.1153846 C72.5,78.0865385 72.8653846,77.5096154 73.2980769,76.8461538 C74.0480769,75.7019231 75.1057692,73.9903846 76.375,71.8269231 C77.0961538,70.6057692 78.75,67.4519231 79.5192308,65.8365385 C79.8653846,65.1153846 80.1826923,64.5384615 80.2307692,64.5576923 C80.4326923,64.6057692 82.375,69.6153846 83.25,72.3076923 C84,74.6346154 84.0961538,74.9519231 84.5,76.5384615 C87.5865385,88.5769231 86.1057692,96.9615385 80.6634615,98.2692308 C79.7115385,98.5 78.4134615,98.5096154 77.2596154,98.2980769 Z M74.8846154,78.0256141 C74.7884615,77.9850517 74.6153846,77.9850517 74.5,78.0256141 C74.375,78.0661766 74.4519231,78.106739 74.6634615,78.106739 C74.875,78.1270202 74.9711538,78.0864578 74.8846154,78.0256141 Z" id="Shape"></path>
                <path d="M61.2884615,87.1923077 C61.0288462,86.9134615 60.5288462,86.3557692 60.1923077,85.9615385 C59.8461538,85.5673077 59.5480769,85.2211538 59.5192308,85.1923077 C59.4038462,85.0865385 57.6442308,82.9423077 57.4615385,82.6826923 C57.3461538,82.5384615 56.6634615,81.6057692 55.9230769,80.625 C55.1923077,79.6442308 54.6057692,78.8173077 54.6346154,78.7980769 C54.6538462,78.7788462 55.4903846,78.7980769 56.4903846,78.8461538 C59.875,79.0096154 65.2788462,78.9423077 68.5961538,78.6923077 L69.4423077,78.625 L69.2692308,78.9038462 C69.0865385,79.1923077 68.5961538,79.8365385 67.4615385,81.2980769 C66.0288462,83.1346154 62.125,87.5769231 61.875,87.6634615 C61.8173077,87.6826923 61.5576923,87.4711538 61.2884615,87.1923077 Z" id="Path"></path>
                <path d="M59.1826923,78.5576923 C57.25,78.4807692 54.4711538,78.2884615 54.2596154,78.2211538 C53.9903846,78.1346154 50.7211538,73 49.2596154,70.3653846 C48.9615385,69.8173077 48.5480769,69.0769231 48.3365385,68.7019231 C47.7307692,67.5961538 45.1153846,62.2788462 45.0480769,62 C44.8942308,61.4038462 48.7692308,54.5576923 51.8461538,49.9807692 C52.375,49.1923077 52.8557692,48.5576923 52.9134615,48.5576923 C52.9807692,48.5576923 53.5288462,48.5096154 54.1346154,48.4615385 C56.5384615,48.2596154 61.0673077,48.1634615 64.0961538,48.2692308 C67.1923077,48.3653846 71.6634615,48.6923077 71.7115385,48.8173077 C71.7211538,48.8653846 72,49.3076923 72.3365385,49.8076923 C74.3365385,52.8365385 76.6057692,56.8365385 78.375,60.4134615 L79.25,62.2019231 L78.3365385,64.0096154 C75.8942308,68.9038462 73.0673077,73.625 70.0576923,77.8365385 L69.6442308,78.4134615 L68.6442308,78.4711538 C66.7980769,78.5865385 61.125,78.6346154 59.1826923,78.5576923 Z M63.9423077,70.1826923 C65.2211538,69.8653846 67.0865385,68.7211538 67.6538462,67.9038462 C67.7307692,67.7884615 67.9134615,67.5673077 68.0480769,67.4230769 C68.375,67.0673077 69.0865385,65.5769231 69.2980769,64.8076923 C69.5096154,64.0288462 69.5288462,62.1153846 69.3365385,61.3461538 C68.8653846,59.4711538 67.7211538,57.8365385 66.1730769,56.8173077 C64.1057692,55.4615385 61.6634615,55.2019231 59.3846154,56.1057692 C57.5769231,56.8173077 56.2980769,58 55.4038462,59.7692308 C54.0673077,62.4134615 54.5673077,65.8076923 56.625,68 C57.3653846,68.7884615 57.9134615,69.2019231 58.8076923,69.6442308 C60.4134615,70.4423077 62.1538462,70.625 63.9423077,70.1826923 Z" id="Shape"></path>
                <path d="M50.2403846,77.8269231 C49.7692308,77.7596154 48.875,77.6346154 48.2692308,77.5480769 C46,77.2403846 42.3653846,76.5 39.9038462,75.8557692 C31.3269231,73.5961538 25.0673077,70.0480769 22.9038462,66.2307692 C22.0673077,64.7692308 21.8076923,63.0288462 22.2019231,61.5865385 C22.9615385,58.8173077 25.6442308,56.25 30.0480769,54.0865385 C32.4615385,52.8942308 35.0576923,51.9038462 37.5769231,51.2211538 L38.4519231,50.9807692 L38.7019231,51.8076923 C39.6538462,54.9615385 41.4519231,59.5384615 43.1346154,63.0576923 C43.4230769,63.6634615 43.6538462,64.1634615 43.6538462,64.1923077 C43.6538462,64.2115385 43.3942308,64.8461538 43.0769231,65.5865385 C42.7596154,66.3365385 42.5096154,66.9615385 42.5288462,66.9807692 C42.5480769,67 42.8173077,66.4326923 43.1346154,65.7307692 C43.4423077,65.0192308 43.7307692,64.4615385 43.7692308,64.4807692 C43.8076923,64.5096154 44.1057692,65.0480769 44.4326923,65.7019231 C46.2115385,69.2211538 48.7884615,73.6057692 50.8942308,76.7115385 C51.2788462,77.2788462 51.625,77.7980769 51.6634615,77.8653846 C51.7596154,78.0096154 51.4230769,78.0096154 50.2403846,77.8269231 Z M42.2019231,67.8846154 C42.2019231,67.7596154 42.1923077,67.7596154 42.125,67.8846154 C42.0769231,67.9615385 42.0096154,68.1346154 41.9807692,68.2692308 L41.9134615,68.5096154 L42.0576923,68.2692308 C42.1442308,68.1346154 42.2019231,67.9615385 42.2019231,67.8846154 Z" id="Shape"></path>
                <path d="M78.7980769,60.3173077 C78.125,58.9807692 78.0192308,58.7884615 76.7307692,56.4903846 C76.0096154,55.2211538 75.0576923,53.5865385 74.6634615,52.9807692 C74.5480769,52.7980769 74.2403846,52.3173077 73.9807692,51.9230769 C73.7307692,51.5288462 73.1826923,50.6923077 72.7692308,50.0673077 C72.3557692,49.4326923 72.0192308,48.8942308 72.0192308,48.8557692 C72.0192308,48.7211538 76,49.2692308 78.9903846,49.8173077 C80.6153846,50.1057692 83.4615385,50.7596154 83.5769231,50.8653846 C83.6826923,50.9519231 82.1730769,55.4519231 81.5865385,56.7788462 C81.5192308,56.9423077 81.2115385,57.6730769 80.9134615,58.4134615 C80.6057692,59.1538462 80.1634615,60.1826923 79.9134615,60.6923077 L79.4711538,61.6346154 L78.7980769,60.3173077 Z" id="Path"></path>
                <path d="M44.7115385,61.2788462 C44.3846154,60.5769231 43.2980769,57.9326923 42.8653846,56.7788462 C42.1442308,54.8653846 40.7211538,50.4903846 40.7980769,50.4134615 C40.8653846,50.3461538 42.375,50.0096154 43.7019231,49.7692308 C46.7692308,49.2019231 51.9230769,48.5288462 52.0673077,48.6730769 C52.1153846,48.7211538 51.6634615,49.4615385 50.3365385,51.5384615 C49.0865385,53.5 46.9038462,57.4230769 45.6057692,60.0480769 C45.2115385,60.8365385 44.8846154,61.5 44.8653846,61.5096154 C44.8557692,61.5288462 44.7788462,61.4230769 44.7115385,61.2788462 Z" id="Path"></path>
                <path d="M84.125,48.5096154 C84.0576923,48.4519231 80.9711538,47.8173077 79.375,47.5480769 C77.1442308,47.1634615 75.5576923,46.9519231 72.8269231,46.6826923 C71.4038462,46.5384615 70.2211538,46.3942308 70.1923077,46.3557692 C69.6730769,45.625 68.4134615,44.0288462 68.2884615,43.9326923 C68.1442308,43.8173077 68.1442308,43.8173077 68.2307692,43.9423077 C69.1826923,45.1826923 70,46.3173077 70,46.375 C70,46.4134615 69.6826923,46.4134615 69.3076923,46.375 C68.1057692,46.25 57.7115385,46.2884615 55.9711538,46.4230769 C55.1057692,46.4903846 54.375,46.5192308 54.3557692,46.5 C54.2692308,46.4134615 57.625,42.1538462 58.75,40.9134615 C58.9423077,40.7019231 59.4903846,40.0961538 59.9519231,39.5673077 C61.0769231,38.2980769 63.6442308,35.75 64.9038462,34.6538462 C69.4519231,30.7019231 73.6346154,28.2788462 76.9903846,27.6346154 C77.9519231,27.4519231 79.7980769,27.4615385 80.5288462,27.6442308 C83.3076923,28.3653846 85.0769231,30.8076923 85.6826923,34.7596154 C85.8846154,36.0480769 85.8557692,40.1634615 85.6442308,41.875 C85.4519231,43.3653846 84.9423077,46.0673077 84.5673077,47.5384615 C84.4326923,48.0576923 84.3269231,48.5 84.3269231,48.5192308 C84.3269231,48.5769231 84.1730769,48.5673077 84.125,48.5096154 Z" id="Path"></path>
            </g>
            <path d="M51.2016734,89.2027891 C51.222199,88.811137 51.2149046,88.5517215 51.2120496,88.4763686 C50.0822633,91.0393234 48.7134742,93.0955602 47.1056823,94.6450789 C45.5928799,96.1032838 43.3634361,96.7313134 40.4809033,96.5145927 C40.8016093,95.7614627 41.2992951,95.3554253 41.2992951,95.3554253 C35.5349709,96.0261966 31.8828012,90.8952576 31.8828012,90.8952576 C31.908524,90.967034 31.9378747,91.0401943 31.9688921,91.113442 C34.2643546,97.029163 40.0360695,98.3128685 40.2531247,98.3325998 C43.732766,98.6104562 46.4671964,97.80835 48.387665,95.9489395 C50.6923928,93.7181332 51.1278061,90.6122605 51.2016734,89.2027891 Z" id="Fill-17" fill="#000000" transform="translate(41.549235, 93.431316) rotate(49.000000) translate(-41.549235, -93.431316) "></path>
            <path d="M107.932542,61.8460441 C107.953067,61.454392 107.945773,61.1949765 107.942918,61.1196237 L106.064809,61.1662449 C106.066866,61.2021637 106.248239,64.9640558 103.836551,67.2883339 C102.323748,68.7465389 100.094304,69.3745684 97.2117717,69.1578477 C97.5324776,68.4047177 98.0301634,67.9986803 98.0301634,67.9986803 C92.2658393,68.6694517 88.6136696,63.5385126 88.6136696,63.5385126 C88.6393923,63.6102891 88.6687431,63.6834494 88.6997604,63.756697 C90.995223,69.6724181 96.7669379,70.9561235 96.9839931,70.9758548 C100.463634,71.2537112 103.198065,70.451605 105.118533,68.5921946 C107.423261,66.3613882 107.858674,63.2555155 107.932542,61.8460441 Z" id="Fill-17" fill="#000000" transform="translate(98.280103, 66.074571) rotate(-55.000000) translate(-98.280103, -66.074571) "></path>
            <path d="M56.1358432,25.4456509 C56.1563688,25.0539988 56.1490744,24.7945833 56.1462194,24.7192305 L54.2681103,24.7658517 C54.270167,24.8017706 54.45154,28.5636627 52.0398521,30.8879407 C50.5270497,32.3461457 48.2976059,32.9741752 45.4150731,32.7574545 C45.7357791,32.0043245 46.2334649,31.5982872 46.2334649,31.5982872 C40.4691407,32.2690585 36.816971,27.1381194 36.816971,27.1381194 C36.8426938,27.2098959 36.8720445,27.2830562 36.9030619,27.3563038 C39.1985244,33.2720249 44.9702393,34.5557303 45.1872945,34.5754616 C48.6669358,34.853318 51.4013663,34.0512118 53.3218348,32.1918014 C55.6265626,29.960995 56.0619759,26.8551223 56.1358432,25.4456509 Z" id="Fill-17" fill="#000000" transform="translate(46.483405, 29.674178) rotate(183.000000) translate(-46.483405, -29.674178) "></path>
        </g>
        <text id="React-Native-Hooks" font-family="AvenirNext-Regular, Avenir Next" font-size="16" font-weight="normal" fill="#1A1919">
            <tspan x="35.772" y="136">React Native Hooks</tspan>
        </text>
    </g>
</svg>