<?xml version="1.0" encoding="UTF-8"?>
<svg width="251px" height="100px" viewBox="0 0 251 100" version="1.1" xmlns="http://www.w3.org/2000/svg" xmlns:xlink="http://www.w3.org/1999/xlink">
    <!-- Generator: Sketch 53.2 (72643) - https://sketchapp.com -->
    <title>rnhooks-logo-horizontal</title>
    <desc>Created with Sketch.</desc>
    <g id="rnhooks-logo-horizontal" stroke="none" stroke-width="1" fill="none" fill-rule="evenodd">
        <rect fill="#FFFFFF" x="0" y="0" width="251" height="100"></rect>
        <g id="Logo">
            <g id="layer2" fill="#020202" fill-rule="nonzero">
                <polygon id="Path" points="0 50 0 0 50 0 100 0 100 50 100 100 50 100 0 100"></polygon>
            </g>
            <g id="layer1" fill="#FFFFFF" fill-rule="nonzero">
                <path d="M0,50 L0,0 L50,0 L100,0 L100,50 L100,100 L50,100 L0,100 L0,50 Z M47.3846154,74.8538462 C47.8230769,74.4846154 49.5307692,72.9 49.8769231,72.5615385 C49.9,72.5384615 50.2384615,72.8076923 50.6307692,73.1615385 C53.9692308,76.1846154 56.6692308,77.9846154 59.4692308,79.0307692 C64.2230769,80.8230769 67.8692308,79.2230769 69.1076923,74.8 C69.5307692,73.3 69.5769231,72.8307692 69.5769231,70.3461538 C69.5692308,67.9 69.5230769,67.3230769 69.1153846,65.1 C68.3846154,61.1153846 66.7076923,55.9923077 64.7384615,51.7461538 C64.5846154,51.4230769 64.4615385,51.1 64.4615385,51.0384615 C64.4615385,50.9769231 64.5538462,50.7307692 64.6615385,50.4846154 C65.9923077,47.5153846 67.2769231,44.1153846 68,41.6384615 C68.1230769,41.2 68.1923077,41.0769231 68.3076923,41.0769231 C68.5384615,41.0769231 71.3846154,42.0384615 72.5307692,42.5076923 C74.5615385,43.3307692 76.5692308,44.4230769 77.9230769,45.4461538 C78.2281722,45.6749753 80.1919971,46.9291784 81.0187509,48.319879 C82.193096,50.2952703 82.2679546,52.5574065 82.3080188,52.6450469 C82.7695572,53.6296623 83.1615385,48.6769231 82.6153846,47.5769231 C81.9153846,46.1461538 80.7923077,44.8923077 79.1923077,43.7384615 C76.6615385,41.9153846 73.7615385,40.6153846 69.2846154,39.3076923 C68.7461538,39.1461538 68.6846154,39.1076923 68.7230769,38.9692308 C68.7461538,38.8769231 68.9076923,38.1307692 69.0769231,37.3 C70.0230769,32.6538462 70.0615385,28.7 69.1769231,25.9692308 C68.4923077,23.8307692 67.4076923,22.4230769 65.8846154,21.7 C64.8461538,21.2 64.4307692,21.1153846 63.1153846,21.1230769 C62.0923077,21.1307692 61.8615385,21.1538462 61.0769231,21.3615385 C59.5923077,21.7538462 58.1538462,22.3923077 56.5769231,23.3461538 C52.5307692,25.8 47.8538462,30.4307692 43.7307692,36.0692308 C42.8538462,37.2692308 42.8230769,37.3 42.5153846,37.3384615 C42.3384615,37.3615385 41.6769231,37.4384615 41.0384615,37.5 C38.8846154,37.7307692 35.2846154,38.3153846 35.1230769,38.4692308 C35.0769231,38.5076923 34.9153846,38.5384615 34.7615385,38.5384615 C34.6076923,38.5384615 34.0461538,38.6461538 33.5153846,38.7692308 C32.3461538,39.0461538 32.2615385,39.0538462 32.2076923,38.8307692 C31.4,35.0923077 31.1461538,33.1615385 31.1384615,30.7692308 C31.1384615,29.2615385 31.1617692,27.4847616 31.3309999,26.5463 C31.7309999,24.2924539 32.6376289,22.5769231 33.8068597,21.7 C33.8899432,21.6370939 32.2116884,21.6267732 31.6153846,22.2230769 C30.2846154,23.5615385 29.6068357,24.9327358 29.237605,27.4327358 C28.9529896,29.4327358 29.0384615,33.0769231 29.5769231,35.9230769 C29.7384615,36.7769231 30.1461538,38.6 30.2692308,39.0307692 C30.4076923,39.5 30.4153846,39.6153846 30.2846154,39.6153846 C30.0538462,39.6153846 27.2538462,40.5923077 26.0384615,41.1 C19.9153846,43.6384615 16.6923077,46.8461538 16.6923077,50.3846154 C16.6923077,53.3769231 19.1230769,56.1538462 23.7230769,58.4153846 C27.1230769,60.0846154 31.2076923,61.3076923 36.2076923,62.1461538 C37.5307692,62.3769231 37.9923077,62.4307692 40.6230769,62.7384615 L41.7538462,62.8769231 L42.2230769,63.5307692 C43.5846154,65.4538462 45.8615385,68.2461538 47.6384615,70.1692308 L48.5384615,71.1461538 L47.5230769,72.0615385 C45.6461538,73.7384615 44.6769231,74.5076923 43.1538462,75.5153846 C39.4153846,77.9846154 35.2932341,79.1741351 33.2393879,78.0895198 C32.6316956,77.7664428 33.0052949,78.3384615 32.6360641,77.6769231 C32.359141,77.1692308 33.0778494,78.6538462 33.2393879,79.0307692 C34.6855417,82.3692308 43.9153846,77.8384615 47.3846154,74.8538462 Z" id="Shape"></path>
                <path d="M61.8076923,78.6384615 C60.2307692,78.3615385 58.1769231,77.4384615 56.2307692,76.1307692 C55.6307692,75.7307692 54.3384615,74.7769231 54,74.4923077 C53.8923077,74.4 53.5307692,74.0923077 53.1923077,73.8076923 C52.2384615,73.0076923 50.8461538,71.6923077 50.8461538,71.5923077 C50.8461538,71.5384615 51.0615385,71.2769231 51.3307692,71 C51.8538462,70.4538462 52.7076923,69.4846154 53.1923077,68.8846154 C53.3615385,68.6769231 53.6076923,68.3846154 53.7384615,68.2384615 C54.4538462,67.4 56.0692308,65.2615385 57.1461538,63.7153846 C57.5384615,63.1538462 57.8769231,62.6923077 57.9076923,62.6846154 C57.9384615,62.6846154 58.2923077,62.6307692 58.6923077,62.5769231 L59.4230769,62.4692308 L58.7153846,62.5 C58.3230769,62.5230769 58,62.5153846 58,62.4923077 C58,62.4692308 58.2923077,62.0076923 58.6384615,61.4769231 C59.2384615,60.5615385 60.0846154,59.1923077 61.1,57.4615385 C61.6769231,56.4846154 63,53.9615385 63.6153846,52.6692308 C63.8923077,52.0923077 64.1461538,51.6307692 64.1846154,51.6461538 C64.3461538,51.6846154 65.9,55.6923077 66.6,57.8461538 C67.2,59.7076923 67.2769231,59.9615385 67.6,61.2307692 C70.0692308,70.8615385 68.8846154,77.5692308 64.5307692,78.6153846 C63.7692308,78.8 62.7307692,78.8076923 61.8076923,78.6384615 Z M59.9076923,62.4221949 C59.8307692,62.3874735 59.6923077,62.3874735 59.6,62.4221949 C59.5,62.4569164 59.5615385,62.4916378 59.7307692,62.4916378 C59.9,62.5089985 59.9769231,62.4742771 59.9076923,62.4221949 Z" id="Shape"></path>
                <path d="M49.0307692,69.7538462 C48.8230769,69.5307692 48.4230769,69.0846154 48.1538462,68.7692308 C47.8769231,68.4538462 47.6384615,68.1769231 47.6153846,68.1538462 C47.5230769,68.0692308 46.1153846,66.3538462 45.9692308,66.1461538 C45.8769231,66.0307692 45.3307692,65.2846154 44.7384615,64.5 C44.1538462,63.7153846 43.6846154,63.0538462 43.7076923,63.0384615 C43.7230769,63.0230769 44.3923077,63.0384615 45.1923077,63.0769231 C47.9,63.2076923 52.2230769,63.1538462 54.8769231,62.9538462 L55.5538462,62.9 L55.4153846,63.1230769 C55.2692308,63.3538462 54.8769231,63.8692308 53.9692308,65.0384615 C52.8230769,66.5076923 49.7,70.0615385 49.5,70.1307692 C49.4538462,70.1461538 49.2461538,69.9769231 49.0307692,69.7538462 Z" id="Path"></path>
                <path d="M47.3461538,62.8461538 C45.8,62.7846154 43.5769231,62.6307692 43.4076923,62.5769231 C43.1923077,62.5076923 40.5769231,58.4 39.4076923,56.2923077 C39.1692308,55.8538462 38.8384615,55.2615385 38.6692308,54.9615385 C38.1846154,54.0769231 36.0923077,49.8230769 36.0384615,49.6 C35.9153846,49.1230769 39.0153846,43.6461538 41.4769231,39.9846154 C41.9,39.3538462 42.2846154,38.8461538 42.3307692,38.8461538 C42.3846154,38.8461538 42.8230769,38.8076923 43.3076923,38.7692308 C45.2307692,38.6076923 48.8538462,38.5307692 51.2769231,38.6153846 C53.7538462,38.6923077 57.3307692,38.9538462 57.3692308,39.0538462 C57.3769231,39.0923077 57.6,39.4461538 57.8692308,39.8461538 C59.4692308,42.2692308 61.2846154,45.4692308 62.7,48.3307692 L63.4,49.7615385 L62.6692308,51.2076923 C60.7153846,55.1230769 58.4538462,58.9 56.0461538,62.2692308 L55.7153846,62.7307692 L54.9153846,62.7769231 C53.4384615,62.8692308 48.9,62.9076923 47.3461538,62.8461538 Z M51.1538462,56.1461538 C52.1769231,55.8923077 53.6692308,54.9769231 54.1230769,54.3230769 C54.1846154,54.2307692 54.3307692,54.0538462 54.4384615,53.9384615 C54.7,53.6538462 55.2692308,52.4615385 55.4384615,51.8461538 C55.6076923,51.2230769 55.6230769,49.6923077 55.4692308,49.0769231 C55.0923077,47.5769231 54.1769231,46.2692308 52.9384615,45.4538462 C51.2846154,44.3692308 49.3307692,44.1615385 47.5076923,44.8846154 C46.0615385,45.4538462 45.0384615,46.4 44.3230769,47.8153846 C43.2538462,49.9307692 43.6538462,52.6461538 45.3,54.4 C45.8923077,55.0307692 46.3307692,55.3615385 47.0461538,55.7153846 C48.3307692,56.3538462 49.7230769,56.5 51.1538462,56.1461538 Z" id="Shape"></path>
                <path d="M40.1923077,62.2615385 C39.8153846,62.2076923 39.1,62.1076923 38.6153846,62.0384615 C36.8,61.7923077 33.8923077,61.2 31.9230769,60.6846154 C25.0615385,58.8769231 20.0538462,56.0384615 18.3230769,52.9846154 C17.6538462,51.8153846 17.4461538,50.4230769 17.7615385,49.2692308 C18.3692308,47.0538462 20.5153846,45 24.0384615,43.2692308 C25.9692308,42.3153846 28.0461538,41.5230769 30.0615385,40.9769231 L30.7615385,40.7846154 L30.9615385,41.4461538 C31.7230769,43.9692308 33.1615385,47.6307692 34.5076923,50.4461538 C34.7384615,50.9307692 34.9230769,51.3307692 34.9230769,51.3538462 C34.9230769,51.3692308 34.7153846,51.8769231 34.4615385,52.4692308 C34.2076923,53.0692308 34.0076923,53.5692308 34.0230769,53.5846154 C34.0384615,53.6 34.2538462,53.1461538 34.5076923,52.5846154 C34.7538462,52.0153846 34.9846154,51.5692308 35.0153846,51.5846154 C35.0461538,51.6076923 35.2846154,52.0384615 35.5461538,52.5615385 C36.9692308,55.3769231 39.0307692,58.8846154 40.7153846,61.3692308 C41.0230769,61.8230769 41.3,62.2384615 41.3307692,62.2923077 C41.4076923,62.4076923 41.1384615,62.4076923 40.1923077,62.2615385 Z M33.7615385,54.3076923 C33.7615385,54.2076923 33.7538462,54.2076923 33.7,54.3076923 C33.6615385,54.3692308 33.6076923,54.5076923 33.5846154,54.6153846 L33.5307692,54.8076923 L33.6461538,54.6153846 C33.7153846,54.5076923 33.7615385,54.3692308 33.7615385,54.3076923 Z" id="Shape"></path>
                <path d="M63.0384615,48.2538462 C62.5,47.1846154 62.4153846,47.0307692 61.3846154,45.1923077 C60.8076923,44.1769231 60.0461538,42.8692308 59.7307692,42.3846154 C59.6384615,42.2384615 59.3923077,41.8538462 59.1846154,41.5384615 C58.9846154,41.2230769 58.5461538,40.5538462 58.2153846,40.0538462 C57.8846154,39.5461538 57.6153846,39.1153846 57.6153846,39.0846154 C57.6153846,38.9769231 60.8,39.4153846 63.1923077,39.8538462 C64.4923077,40.0846154 66.7692308,40.6076923 66.8615385,40.6923077 C66.9461538,40.7615385 65.7384615,44.3615385 65.2692308,45.4230769 C65.2153846,45.5538462 64.9692308,46.1384615 64.7307692,46.7307692 C64.4846154,47.3230769 64.1307692,48.1461538 63.9307692,48.5538462 L63.5769231,49.3076923 L63.0384615,48.2538462 Z" id="Path"></path>
                <path d="M35.7692308,49.0230769 C35.5076923,48.4615385 34.6384615,46.3461538 34.2923077,45.4230769 C33.7153846,43.8923077 32.5769231,40.3923077 32.6384615,40.3307692 C32.6923077,40.2769231 33.9,40.0076923 34.9615385,39.8153846 C37.4153846,39.3615385 41.5384615,38.8230769 41.6538462,38.9384615 C41.6923077,38.9769231 41.3307692,39.5692308 40.2692308,41.2307692 C39.2692308,42.8 37.5230769,45.9384615 36.4846154,48.0384615 C36.1692308,48.6692308 35.9076923,49.2 35.8923077,49.2076923 C35.8846154,49.2230769 35.8230769,49.1384615 35.7692308,49.0230769 Z" id="Path"></path>
                <path d="M67.3,38.8076923 C67.2461538,38.7615385 64.7769231,38.2538462 63.5,38.0384615 C61.7153846,37.7307692 60.4461538,37.5615385 58.2615385,37.3461538 C57.1230769,37.2307692 56.1769231,37.1153846 56.1538462,37.0846154 C55.7384615,36.5 54.7307692,35.2230769 54.6307692,35.1461538 C54.5153846,35.0538462 54.5153846,35.0538462 54.5846154,35.1538462 C55.3461538,36.1461538 56,37.0538462 56,37.1 C56,37.1307692 55.7461538,37.1307692 55.4461538,37.1 C54.4846154,37 46.1692308,37.0307692 44.7769231,37.1384615 C44.0846154,37.1923077 43.5,37.2153846 43.4846154,37.2 C43.4153846,37.1307692 46.1,33.7230769 47,32.7307692 C47.1538462,32.5615385 47.5923077,32.0769231 47.9615385,31.6538462 C48.8615385,30.6384615 50.9153846,28.6 51.9230769,27.7230769 C55.5615385,24.5615385 58.9076923,22.6230769 61.5923077,22.1076923 C62.3615385,21.9615385 63.8384615,21.9692308 64.4230769,22.1153846 C66.6461538,22.6923077 68.0615385,24.6461538 68.5461538,27.8076923 C68.7076923,28.8384615 68.6846154,32.1307692 68.5153846,33.5 C68.3615385,34.6923077 67.9538462,36.8538462 67.6538462,38.0307692 C67.5461538,38.4461538 67.4615385,38.8 67.4615385,38.8153846 C67.4615385,38.8615385 67.3384615,38.8538462 67.3,38.8076923 Z" id="Path"></path>
            </g>
            <path d="M40.9613387,71.3622313 C40.9777592,71.0489096 40.9719237,70.8413772 40.9696397,70.7810949 C40.0658107,72.8314587 38.9707794,74.4764481 37.6845458,75.7160631 C36.4743039,76.8826271 34.6907489,77.3850507 32.3847226,77.2116741 C32.6412874,76.6091701 33.039436,76.2843403 33.039436,76.2843403 C28.4279767,76.8209573 25.506241,72.7162061 25.506241,72.7162061 C25.5268192,72.7736272 25.5502998,72.8321555 25.5751136,72.8907536 C27.4114837,77.6233304 32.0288556,78.6502948 32.2024998,78.6660798 C34.9862128,78.8883649 37.1737572,78.24668 38.710132,76.7591516 C40.5539142,74.9745065 40.9022449,72.4898084 40.9613387,71.3622313 Z" id="Fill-17" fill="#000000" transform="translate(33.239388, 74.745053) rotate(49.000000) translate(-33.239388, -74.745053) "></path>
            <path d="M86.3460334,49.4768353 C86.3624539,49.1635136 86.3566184,48.9559812 86.3543344,48.8956989 L84.851847,48.9329959 C84.8534925,48.961731 84.9985908,51.9712447 83.0692405,53.8306671 C81.8589986,54.9972311 80.0754436,55.4996547 77.7694173,55.3262782 C78.0259821,54.7237742 78.4241307,54.3989443 78.4241307,54.3989443 C73.8126714,54.9355613 70.8909357,50.8308101 70.8909357,50.8308101 C70.9115139,50.8882313 70.9349945,50.9467595 70.9598083,51.0053576 C72.7961784,55.7379345 77.4135503,56.7648988 77.5871945,56.7806838 C80.3709075,57.0029689 82.5584518,56.361284 84.0948267,54.8737556 C85.9386089,53.0891106 86.2869396,50.6044124 86.3460334,49.4768353 Z" id="Fill-17" fill="#000000" transform="translate(78.624083, 52.859657) rotate(-55.000000) translate(-78.624083, -52.859657) "></path>
            <path d="M44.9086746,20.3565207 C44.9250951,20.0431991 44.9192595,19.8356666 44.9169755,19.7753844 L43.4144882,19.8126814 C43.4161336,19.8414164 43.561232,22.8509301 41.6318817,24.7103526 C40.4216398,25.8769165 38.6380847,26.3793402 36.3320585,26.2059636 C36.5886233,25.6034596 36.9867719,25.2786297 36.9867719,25.2786297 C32.3753126,25.8152468 29.4535768,21.7104955 29.4535768,21.7104955 C29.474155,21.7679167 29.4976356,21.8264449 29.5224495,21.8850431 C31.3588195,26.6176199 35.9761915,27.6445842 36.1498356,27.6603693 C38.9335487,27.8826544 41.121093,27.2409694 42.6574679,25.7534411 C44.5012501,23.968796 44.8495807,21.4840979 44.9086746,20.3565207 Z" id="Fill-17" fill="#000000" transform="translate(37.186724, 23.739343) rotate(183.000000) translate(-37.186724, -23.739343) "></path>
        </g>
        <text id="React-Native-Hooks" font-family="AvenirNext-Regular, Avenir Next" font-size="16" font-weight="normal" fill="#1A1919">
            <tspan x="94.272" y="55">React Native Hooks</tspan>
        </text>
    </g>
</svg>